<svg width="42" height="42" viewBox="0 0 42 42" fill="none" xmlns="http://www.w3.org/2000/svg">
<rect x="42" y="42" width="42" height="42" rx="21" transform="rotate(180 42 42)" fill="#7B61FF"/>
<path fill-rule="evenodd" clip-rule="evenodd" d="M31.5398 21C31.5398 21.6136 31.0423 22.1111 30.4287 22.1111L15.0406 22.1111L21.2755 28.3461C21.7095 28.78 21.7095 29.4835 21.2755 29.9174C20.8416 30.3513 20.1381 30.3513 19.7042 29.9174L10.7868 21L19.7042 12.0826C20.1381 11.6487 20.8416 11.6487 21.2755 12.0826C21.7095 12.5165 21.7095 13.22 21.2755 13.6539L15.0406 19.8889L30.4287 19.8889C31.0423 19.8889 31.5398 20.3864 31.5398 21Z" fill="white"/>
</svg>
