<svg width="42" height="42" viewBox="0 0 42 42" fill="none" xmlns="http://www.w3.org/2000/svg">
<rect x="42" y="42" width="42" height="42" rx="21" transform="rotate(180 42 42)" fill="white" fill-opacity="0.2"/>
<path fill-rule="evenodd" clip-rule="evenodd" d="M11.2473 21C11.2473 20.3864 11.7448 19.8889 12.3585 19.8889L27.7465 19.8889L21.5116 13.6539C21.0776 13.22 21.0776 12.5165 21.5116 12.0826C21.9455 11.6487 22.649 11.6487 23.0829 12.0826L32.0003 21L23.0829 29.9174C22.649 30.3513 21.9455 30.3513 21.5116 29.9174C21.0776 29.4835 21.0776 28.78 21.5116 28.3461L27.7465 22.1111L12.3585 22.1111C11.7448 22.1111 11.2473 21.6136 11.2473 21Z" fill="white"/>
</svg>
