<svg width="77" height="13" viewBox="0 0 77 13" fill="none" xmlns="http://www.w3.org/2000/svg">
<path d="M11.6406 6.27344C11.6406 7.15365 11.5286 7.95573 11.3047 8.67969C11.0859 9.39844 10.7552 10.0182 10.3125 10.5391C9.86979 11.0547 9.3151 11.4531 8.64844 11.7344C7.98177 12.0156 7.20052 12.1562 6.30469 12.1562C5.39323 12.1562 4.60156 12.0156 3.92969 11.7344C3.26302 11.4531 2.70833 11.0521 2.26562 10.5312C1.82812 10.0104 1.5 9.38802 1.28125 8.66406C1.0625 7.9401 0.953125 7.13802 0.953125 6.25781C0.953125 5.08073 1.14583 4.05469 1.53125 3.17969C1.92188 2.29948 2.51302 1.61719 3.30469 1.13281C4.10156 0.643229 5.10677 0.398438 6.32031 0.398438C7.50781 0.398438 8.49479 0.640625 9.28125 1.125C10.0677 1.60938 10.6562 2.29167 11.0469 3.17188C11.4427 4.04688 11.6406 5.08073 11.6406 6.27344ZM2.92188 6.27344C2.92188 7.15365 3.04167 7.91667 3.28125 8.5625C3.52083 9.20312 3.88802 9.69792 4.38281 10.0469C4.88281 10.3906 5.52344 10.5625 6.30469 10.5625C7.09115 10.5625 7.73177 10.3906 8.22656 10.0469C8.72135 9.69792 9.08594 9.20312 9.32031 8.5625C9.55469 7.91667 9.67188 7.15365 9.67188 6.27344C9.67188 4.9349 9.40365 3.88802 8.86719 3.13281C8.33594 2.3724 7.48698 1.99219 6.32031 1.99219C5.53906 1.99219 4.89583 2.16406 4.39062 2.50781C3.89062 2.85156 3.52083 3.34375 3.28125 3.98438C3.04167 4.61979 2.92188 5.38281 2.92188 6.27344ZM14.0938 12V0.578125H15.9688V12H14.0938ZM18.9844 12V0.578125H20.8594V10.4062H25.7109V12H18.9844ZM35.2578 0.40625C35.8464 0.40625 36.362 0.502604 36.8047 0.695312C37.2526 0.888021 37.6016 1.16927 37.8516 1.53906C38.1016 1.90365 38.2266 2.34896 38.2266 2.875C38.2266 3.57812 38.0078 4.17188 37.5703 4.65625C37.1328 5.14062 36.5807 5.57292 35.9141 5.95312L38.6094 8.57812C38.8646 8.22917 39.0755 7.84635 39.2422 7.42969C39.4089 7.00781 39.5521 6.5651 39.6719 6.10156H41.5703C41.4089 6.7474 41.1849 7.38542 40.8984 8.01562C40.612 8.64062 40.25 9.21354 39.8125 9.73438L42.1328 12H39.7812L38.625 10.8672C38.3021 11.1276 37.9557 11.3542 37.5859 11.5469C37.2214 11.7396 36.8229 11.8906 36.3906 12C35.9583 12.1042 35.4818 12.1562 34.9609 12.1562C34.1641 12.1562 33.4766 12.0286 32.8984 11.7734C32.3203 11.5182 31.875 11.1536 31.5625 10.6797C31.2552 10.2005 31.1016 9.63281 31.1016 8.97656C31.1016 8.42969 31.1927 7.96094 31.375 7.57031C31.5625 7.17448 31.8281 6.82812 32.1719 6.53125C32.5156 6.22917 32.9271 5.94271 33.4062 5.67188C33.1458 5.375 32.9193 5.08594 32.7266 4.80469C32.5339 4.52344 32.3854 4.23438 32.2812 3.9375C32.1823 3.63542 32.1328 3.3125 32.1328 2.96875C32.1328 2.4375 32.263 1.98177 32.5234 1.60156C32.7839 1.21615 33.1484 0.921875 33.6172 0.71875C34.0859 0.510417 34.6328 0.40625 35.2578 0.40625ZM34.4922 6.78906C34.1901 6.98177 33.9297 7.17708 33.7109 7.375C33.4922 7.56771 33.3229 7.78125 33.2031 8.01562C33.0885 8.25 33.0312 8.52344 33.0312 8.83594C33.0312 9.3724 33.2188 9.79688 33.5938 10.1094C33.974 10.4219 34.4635 10.5781 35.0625 10.5781C35.5885 10.5781 36.0495 10.5 36.4453 10.3438C36.8464 10.1823 37.1953 9.98177 37.4922 9.74219L34.4922 6.78906ZM35.2266 1.85938C34.8568 1.85938 34.5365 1.95573 34.2656 2.14844C34 2.34115 33.8672 2.64062 33.8672 3.04688C33.8672 3.375 33.9531 3.6849 34.125 3.97656C34.3021 4.26302 34.5469 4.57292 34.8594 4.90625C35.4062 4.60417 35.8125 4.30729 36.0781 4.01562C36.349 3.72396 36.4844 3.38542 36.4844 3C36.4844 2.63542 36.362 2.35417 36.1172 2.15625C35.8724 1.95833 35.5755 1.85938 35.2266 1.85938ZM52.4375 5.79688H56.7031V11.5312C56.1042 11.7292 55.4844 11.8828 54.8438 11.9922C54.2031 12.1016 53.4844 12.1562 52.6875 12.1562C51.526 12.1562 50.5417 11.9271 49.7344 11.4688C48.9323 11.0052 48.3229 10.3359 47.9062 9.46094C47.4896 8.58073 47.2812 7.52083 47.2812 6.28125C47.2812 5.08854 47.513 4.05469 47.9766 3.17969C48.4401 2.29948 49.1146 1.61979 50 1.14062C50.8854 0.65625 51.9583 0.414062 53.2188 0.414062C53.8385 0.414062 54.4375 0.476562 55.0156 0.601562C55.599 0.721354 56.1328 0.888021 56.6172 1.10156L55.9609 2.64844C55.5755 2.46615 55.1432 2.3125 54.6641 2.1875C54.1849 2.0625 53.6875 2 53.1719 2C52.3542 2 51.6484 2.17708 51.0547 2.53125C50.4661 2.88542 50.013 3.38542 49.6953 4.03125C49.3776 4.67188 49.2188 5.42969 49.2188 6.30469C49.2188 7.15365 49.3464 7.89844 49.6016 8.53906C49.8568 9.17969 50.2552 9.67969 50.7969 10.0391C51.3438 10.3932 52.0495 10.5703 52.9141 10.5703C53.3464 10.5703 53.7135 10.5469 54.0156 10.5C54.3177 10.4531 54.5964 10.401 54.8516 10.3438V7.39844H52.4375V5.79688ZM66.5156 12L65.3984 8.82812H61.0312L59.9141 12H57.9375L62.1875 0.53125H64.2656L68.5078 12H66.5156ZM64.9141 7.21875L63.8281 4.09375C63.7865 3.95833 63.7266 3.76823 63.6484 3.52344C63.5703 3.27344 63.4922 3.02083 63.4141 2.76562C63.3359 2.50521 63.2708 2.28646 63.2188 2.10938C63.1667 2.32292 63.1016 2.5625 63.0234 2.82812C62.9505 3.08854 62.8776 3.33333 62.8047 3.5625C62.737 3.79167 62.6849 3.96875 62.6484 4.09375L61.5547 7.21875H64.9141ZM76.6094 8.89062C76.6094 9.56771 76.4427 10.151 76.1094 10.6406C75.7812 11.1302 75.3073 11.5052 74.6875 11.7656C74.0729 12.026 73.3385 12.1562 72.4844 12.1562C72.0677 12.1562 71.6693 12.1328 71.2891 12.0859C70.9089 12.0391 70.5495 11.9714 70.2109 11.8828C69.8776 11.7891 69.5729 11.6771 69.2969 11.5469V9.78125C69.7604 9.98438 70.2786 10.1693 70.8516 10.3359C71.4245 10.4974 72.0078 10.5781 72.6016 10.5781C73.0859 10.5781 73.487 10.5156 73.8047 10.3906C74.1276 10.2604 74.3672 10.0781 74.5234 9.84375C74.6797 9.60417 74.7578 9.32552 74.7578 9.00781C74.7578 8.66927 74.6667 8.38281 74.4844 8.14844C74.3021 7.91406 74.026 7.70052 73.6562 7.50781C73.2917 7.3099 72.8333 7.09896 72.2812 6.875C71.9062 6.72396 71.5469 6.55208 71.2031 6.35938C70.8646 6.16667 70.5625 5.9401 70.2969 5.67969C70.0312 5.41927 69.8203 5.11198 69.6641 4.75781C69.513 4.39844 69.4375 3.97656 69.4375 3.49219C69.4375 2.84635 69.5911 2.29427 69.8984 1.83594C70.2109 1.3776 70.6484 1.02604 71.2109 0.78125C71.7786 0.536458 72.4401 0.414062 73.1953 0.414062C73.7943 0.414062 74.3568 0.476562 74.8828 0.601562C75.4141 0.726562 75.9349 0.903646 76.4453 1.13281L75.8516 2.64062C75.3828 2.44792 74.9271 2.29427 74.4844 2.17969C74.0469 2.0651 73.599 2.00781 73.1406 2.00781C72.7448 2.00781 72.4089 2.06771 72.1328 2.1875C71.8568 2.30729 71.6458 2.47656 71.5 2.69531C71.3594 2.90885 71.2891 3.16406 71.2891 3.46094C71.2891 3.79427 71.3698 4.07552 71.5312 4.30469C71.6979 4.52865 71.9531 4.73438 72.2969 4.92188C72.6458 5.10938 73.0938 5.31771 73.6406 5.54688C74.2708 5.80729 74.8047 6.08073 75.2422 6.36719C75.6849 6.65365 76.0234 6.9974 76.2578 7.39844C76.4922 7.79427 76.6094 8.29167 76.6094 8.89062Z" fill="white"/>
</svg>
