<svg width="182" height="40" viewBox="0 0 182 40" fill="none" xmlns="http://www.w3.org/2000/svg">
<path d="M113.631 14.9045C114.817 14.9045 115.839 15.1305 116.696 15.5824C117.553 16.0269 118.215 16.6747 118.682 17.5259C119.149 18.3771 119.382 19.4166 119.382 20.6444V22.3166H111.105C111.143 23.2883 111.438 24.0529 111.989 24.6103C112.548 25.1602 113.321 25.4351 114.308 25.4351C115.127 25.4351 115.877 25.3523 116.558 25.1866C117.239 25.0208 117.94 24.7723 118.659 24.4408V27.1074C118.024 27.4162 117.358 27.6422 116.662 27.7853C115.973 27.9284 115.135 28 114.147 28C112.862 28 111.721 27.7665 110.726 27.2995C109.739 26.8324 108.962 26.1206 108.396 25.164C107.837 24.2073 107.558 23.0021 107.558 21.5483C107.558 20.0719 107.81 18.8441 108.315 17.8648C108.828 16.8781 109.54 16.1399 110.451 15.6502C111.362 15.1531 112.422 14.9045 113.631 14.9045ZM113.654 17.3564C112.973 17.3564 112.406 17.5711 111.955 18.0004C111.511 18.4298 111.254 19.104 111.186 20.0229H116.099C116.091 19.5107 115.996 19.055 115.812 18.6558C115.636 18.2565 115.368 17.9402 115.008 17.7067C114.656 17.4731 114.205 17.3564 113.654 17.3564Z" fill="white"/>
<path d="M103.198 25.2544C103.58 25.2544 103.952 25.2167 104.311 25.1414C104.679 25.066 105.042 24.9719 105.402 24.8589V27.4238C105.027 27.5895 104.56 27.7251 104.001 27.8305C103.45 27.9435 102.846 28 102.188 28C101.422 28 100.733 27.8795 100.121 27.6384C99.5164 27.3899 99.0381 26.9643 98.686 26.3617C98.3416 25.7515 98.1694 24.9041 98.1694 23.8194V17.7293H96.4933V16.2717L98.422 15.1192L99.4323 12.4526H101.671V15.1418H105.264V17.7293H101.671V23.8194C101.671 24.3015 101.809 24.663 102.084 24.9041C102.367 25.1376 102.739 25.2544 103.198 25.2544Z" fill="white"/>
<path d="M94.1772 15.1418V27.774H90.6758V15.1418H94.1772ZM92.4322 10.1928C92.9527 10.1928 93.4004 10.3134 93.7754 10.5544C94.1505 10.7879 94.338 11.2286 94.338 11.8764C94.338 12.5167 94.1505 12.9611 93.7754 13.2097C93.4004 13.4507 92.9527 13.5712 92.4322 13.5712C91.9042 13.5712 91.4526 13.4507 91.0776 13.2097C90.7102 12.9611 90.5265 12.5167 90.5265 11.8764C90.5265 11.2286 90.7102 10.7879 91.0776 10.5544C91.4526 10.3134 91.9042 10.1928 92.4322 10.1928Z" fill="white"/>
<path d="M88.3716 27.774H84.8701V10.1928H88.3716V27.774Z" fill="white"/>
<path d="M82.7152 21.4353C82.7152 22.4899 82.5698 23.4239 82.279 24.2375C81.9958 25.051 81.5787 25.7402 81.0276 26.3052C80.4842 26.8626 79.826 27.2844 79.053 27.5706C78.2877 27.8569 77.4229 28 76.4585 28C75.5554 28 74.725 27.8569 73.9673 27.5706C73.2173 27.2844 72.5629 26.8626 72.0042 26.3052C71.4531 25.7402 71.0245 25.051 70.7184 24.2375C70.4199 23.4239 70.2707 22.4899 70.2707 21.4353C70.2707 20.0342 70.5232 18.8478 71.0284 17.8761C71.5335 16.9044 72.2529 16.1662 73.1866 15.6615C74.1204 15.1569 75.2339 14.9045 76.5274 14.9045C77.729 14.9045 78.7928 15.1569 79.7189 15.6615C80.6526 16.1662 81.3835 16.9044 81.9116 17.8761C82.4474 18.8478 82.7152 20.0342 82.7152 21.4353ZM73.841 21.4353C73.841 22.2639 73.9329 22.9607 74.1165 23.5256C74.3002 24.0906 74.5872 24.5162 74.9776 24.8024C75.3679 25.0886 75.8768 25.2318 76.5044 25.2318C77.1244 25.2318 77.6257 25.0886 78.0083 24.8024C78.3987 24.5162 78.6818 24.0906 78.8579 23.5256C79.0416 22.9607 79.1334 22.2639 79.1334 21.4353C79.1334 20.5992 79.0416 19.9062 78.8579 19.3563C78.6818 18.7989 78.3987 18.3808 78.0083 18.1021C77.618 17.8234 77.1091 17.6841 76.4815 17.6841C75.5554 17.6841 74.8819 17.9967 74.4609 18.6219C74.0477 19.2471 73.841 20.1849 73.841 21.4353Z" fill="white"/>
<path d="M68.1153 24.0228C68.1153 24.8815 67.9086 25.6084 67.4953 26.2035C67.0897 26.791 66.4813 27.2392 65.67 27.548C64.8587 27.8494 63.8485 28 62.6392 28C61.7437 28 60.9746 27.9435 60.3317 27.8305C59.6964 27.7175 59.0535 27.5292 58.403 27.2656V24.4182C59.0995 24.7271 59.8457 24.9832 60.6416 25.1866C61.4453 25.3824 62.1494 25.4803 62.754 25.4803C63.4352 25.4803 63.9212 25.3824 64.212 25.1866C64.5105 24.9832 64.6597 24.7195 64.6597 24.3956C64.6597 24.1847 64.5985 23.9964 64.476 23.8307C64.3612 23.6574 64.1087 23.4654 63.7183 23.2544C63.328 23.036 62.7157 22.7535 61.8815 22.407C61.0779 22.0756 60.4159 21.7404 59.8954 21.4014C59.3826 21.0624 59 20.6632 58.7474 20.2037C58.5025 19.7367 58.38 19.1454 58.38 18.4298C58.38 17.2622 58.8392 16.3847 59.7577 15.7971C60.6837 15.2021 61.9198 14.9045 63.4658 14.9045C64.2617 14.9045 65.0194 14.9836 65.7389 15.1418C66.466 15.3 67.2122 15.5523 67.9775 15.8988L66.9213 18.3846C66.2861 18.1134 65.6853 17.8912 65.1189 17.718C64.5602 17.5447 63.99 17.4581 63.4084 17.4581C62.8956 17.4581 62.5091 17.5259 62.2489 17.6615C61.9887 17.797 61.8585 18.0042 61.8585 18.2829C61.8585 18.4863 61.9236 18.6671 62.0537 18.8253C62.1915 18.9834 62.4517 19.1605 62.8344 19.3563C63.2247 19.5446 63.7949 19.7894 64.5449 20.0907C65.272 20.3845 65.9034 20.6933 66.4392 21.0172C66.9749 21.3336 67.3882 21.7291 67.679 22.2036C67.9699 22.6707 68.1153 23.277 68.1153 24.0228Z" fill="white"/>
<path d="M47.7407 10.1928V14.2831C47.7407 14.7576 47.7254 15.2284 47.6948 15.6954C47.6718 16.1625 47.6412 16.524 47.603 16.7801H47.7407C48.0775 16.2604 48.5367 15.8197 49.1184 15.4582C49.7 15.0891 50.4539 14.9045 51.38 14.9045C52.8188 14.9045 53.986 15.4582 54.8814 16.5655C55.7769 17.6728 56.2246 19.296 56.2246 21.4353C56.2246 22.874 56.018 24.083 55.6047 25.0623C55.1914 26.034 54.6136 26.7684 53.8712 27.2656C53.1288 27.7552 52.2678 28 51.2881 28C50.3467 28 49.6043 27.8343 49.061 27.5028C48.5176 27.1714 48.0775 26.7985 47.7407 26.3843H47.4996L46.9141 27.774H44.2393V10.1928H47.7407ZM50.2549 17.6615C49.6426 17.6615 49.1566 17.7857 48.7969 18.0343C48.4372 18.2829 48.1731 18.6558 48.0048 19.1529C47.844 19.6501 47.756 20.279 47.7407 21.0398V21.4127C47.7407 22.6405 47.9244 23.5821 48.2918 24.2374C48.6591 24.8853 49.3288 25.2092 50.3008 25.2092C51.0202 25.2092 51.5904 24.8815 52.0114 24.2262C52.44 23.5708 52.6543 22.6255 52.6543 21.3901C52.6543 20.1548 52.44 19.2245 52.0114 18.5993C51.5828 17.9741 50.9973 17.6615 50.2549 17.6615Z" fill="white"/>
<path d="M38.2496 27.774L37.0327 23.842H30.9138L29.6969 27.774H25.8625L31.7863 11.1871H36.1373L42.084 27.774H38.2496ZM36.1832 20.9043L34.9663 17.0626C34.8898 16.8065 34.7864 16.4788 34.6563 16.0796C34.5339 15.6728 34.4076 15.2623 34.2775 14.848C34.155 14.4262 34.0555 14.0609 33.979 13.752C33.9025 14.0609 33.7953 14.445 33.6575 14.9045C33.5274 15.3565 33.4011 15.7858 33.2787 16.1926C33.1562 16.5994 33.0682 16.8894 33.0146 17.0626L31.8092 20.9043H36.1832Z" fill="white"/>
<path d="M182 23.8299C182 24.6887 181.793 25.4156 181.38 26.0106C180.974 26.5982 180.366 27.0464 179.555 27.3552C178.743 27.6565 177.733 27.8072 176.524 27.8072C175.629 27.8072 174.859 27.7507 174.216 27.6377C173.581 27.5247 172.938 27.3364 172.288 27.0727V24.2254C172.984 24.5342 173.73 24.7903 174.526 24.9937C175.33 25.1896 176.034 25.2875 176.639 25.2875C177.32 25.2875 177.806 25.1896 178.097 24.9937C178.395 24.7903 178.544 24.5267 178.544 24.2028C178.544 23.9919 178.483 23.8036 178.361 23.6378C178.246 23.4646 177.993 23.2725 177.603 23.0616C177.213 22.8432 176.601 22.5607 175.766 22.2142C174.963 21.8827 174.301 21.5475 173.78 21.2086C173.267 20.8696 172.885 20.4704 172.632 20.0109C172.387 19.5439 172.265 18.9525 172.265 18.2369C172.265 17.0694 172.724 16.1918 173.642 15.6043C174.568 15.0092 175.805 14.7117 177.351 14.7117C178.146 14.7117 178.904 14.7908 179.624 14.9489C180.351 15.1071 181.097 15.3595 181.862 15.706L180.806 18.1918C180.171 17.9206 179.57 17.6984 179.004 17.5251C178.445 17.3519 177.875 17.2652 177.293 17.2652C176.78 17.2652 176.394 17.333 176.134 17.4686C175.873 17.6042 175.743 17.8114 175.743 18.0901C175.743 18.2934 175.808 18.4742 175.938 18.6324C176.076 18.7906 176.336 18.9676 176.719 19.1635C177.109 19.3518 177.68 19.5966 178.43 19.8979C179.157 20.1917 179.788 20.5005 180.324 20.8244C180.86 21.1408 181.273 21.5362 181.564 22.0108C181.855 22.4778 182 23.0842 182 23.8299Z" fill="white"/>
<path d="M164.853 14.6891C166.575 14.6891 167.895 15.0582 168.813 15.7964C169.732 16.5346 170.191 17.6569 170.191 19.1635V27.5812H167.746L167.068 25.8637H166.977C166.609 26.3157 166.234 26.6848 165.852 26.971C165.469 27.2573 165.029 27.4682 164.531 27.6038C164.034 27.7394 163.429 27.8072 162.717 27.8072C161.96 27.8072 161.279 27.664 160.674 27.3778C160.077 27.0916 159.606 26.6547 159.262 26.0671C158.917 25.472 158.745 24.7188 158.745 23.8073C158.745 22.4665 159.224 21.4797 160.18 20.847C161.137 20.2067 162.572 19.8527 164.485 19.7849L166.713 19.7171V19.1635C166.713 18.5006 166.537 18.0147 166.184 17.7059C165.832 17.3971 165.343 17.2426 164.715 17.2426C164.095 17.2426 163.487 17.3293 162.89 17.5025C162.293 17.6758 161.696 17.8942 161.099 18.1579L159.939 15.8303C160.62 15.4762 161.382 15.1975 162.224 14.9941C163.073 14.7908 163.95 14.6891 164.853 14.6891ZM166.713 21.7283L165.358 21.7735C164.225 21.8037 163.437 22.0033 162.993 22.3724C162.557 22.7415 162.339 23.2273 162.339 23.8299C162.339 24.3572 162.495 24.7338 162.809 24.9598C163.123 25.1783 163.533 25.2875 164.038 25.2875C164.788 25.2875 165.419 25.0691 165.932 24.6322C166.452 24.1953 166.713 23.5738 166.713 22.7678V21.7283Z" fill="white"/>
<path d="M150.908 14.7117C152.094 14.7117 153.116 14.9376 153.973 15.3896C154.831 15.834 155.493 16.4818 155.959 17.333C156.426 18.1842 156.66 19.2237 156.66 20.4515V22.1238H148.383C148.421 23.0955 148.715 23.8601 149.266 24.4175C149.825 24.9674 150.598 25.2423 151.585 25.2423C152.404 25.2423 153.154 25.1594 153.836 24.9937C154.517 24.828 155.217 24.5794 155.937 24.248V26.9145C155.301 27.2234 154.635 27.4494 153.939 27.5925C153.25 27.7356 152.412 27.8072 151.425 27.8072C150.139 27.8072 148.999 27.5737 148.004 27.1066C147.016 26.6396 146.24 25.9278 145.673 24.9711C145.114 24.0145 144.835 22.8093 144.835 21.3555C144.835 19.8791 145.088 18.6512 145.593 17.672C146.106 16.6852 146.817 15.947 147.728 15.4574C148.639 14.9602 149.699 14.7117 150.908 14.7117ZM150.931 17.1635C150.25 17.1635 149.684 17.3782 149.232 17.8076C148.788 18.2369 148.532 18.9111 148.463 19.8301H153.376C153.369 19.3179 153.273 18.8622 153.089 18.4629C152.913 18.0637 152.645 17.7473 152.286 17.5138C151.934 17.2803 151.482 17.1635 150.931 17.1635Z" fill="white"/>
<path d="M135.572 27.8072C134.141 27.8072 132.974 27.2573 132.071 26.1575C131.175 25.0502 130.728 23.4269 130.728 21.2877C130.728 19.1258 131.183 17.4912 132.094 16.3839C133.005 15.2691 134.195 14.7117 135.664 14.7117C136.276 14.7117 136.816 14.7945 137.283 14.9602C137.75 15.126 138.152 15.3482 138.488 15.6269C138.833 15.9056 139.124 16.2182 139.361 16.5647H139.476C139.43 16.3237 139.372 15.9696 139.303 15.5026C139.242 15.028 139.212 14.5422 139.212 14.045V10H142.725V27.5812H140.038L139.361 25.9428H139.212C138.99 26.2893 138.71 26.6057 138.374 26.8919C138.044 27.1707 137.65 27.3929 137.191 27.5586C136.732 27.7243 136.192 27.8072 135.572 27.8072ZM136.801 25.0615C137.757 25.0615 138.431 24.7828 138.821 24.2254C139.219 23.6604 139.43 22.813 139.453 21.6831V21.3103C139.453 20.0824 139.261 19.1446 138.879 18.4968C138.496 17.8415 137.784 17.5138 136.743 17.5138C135.97 17.5138 135.366 17.8415 134.929 18.4968C134.493 19.1522 134.275 20.0975 134.275 21.3329C134.275 22.5682 134.493 23.4985 134.929 24.1237C135.373 24.7489 135.997 25.0615 136.801 25.0615Z" fill="white"/>
<path d="M125.198 27.5812V11.0621H128.757V27.5812H125.198Z" fill="white"/>
<path d="M22.3351 11.157V27.9337H16.4572V11.157L22.3351 11.157Z" fill="white"/>
<path d="M15.2824 11.157L15.2824 27.9337H10.3841V11.157L15.2824 11.157Z" fill="white"/>
<path d="M9.20816 11.157L9.20816 27.9337H5.28958L5.28958 11.157L9.20816 11.157Z" fill="white"/>
<path d="M4.11441 11.157L4.11441 27.9337H2.15512L2.15512 11.157L4.11441 11.157Z" fill="white"/>
<path d="M0.979646 11.157L0.979645 27.9337H0L7.45098e-07 11.157H0.979646Z" fill="white"/>
</svg>
